<?xml version="1.0" encoding="iso-8859-1"?>
<!-- Generator: Adobe Illustrator 19.0.0, SVG Export Plug-In . SVG Version: 6.00 Build 0)  -->
<svg version="1.1" id="Layer_1" xmlns="http://www.w3.org/2000/svg" width="50px" height="50px" xmlns:xlink="http://www.w3.org/1999/xlink" x="0px" y="0px"
	 viewBox="0 0 122.409 122.409" style="enable-background:new 0 0 122.409 122.409;" xml:space="preserve">
<g id="XMLID_85_">
	<path id="XMLID_210_" style="fill:#41A9C4;" d="M109.889,73.919h-97.37C5.634,73.919,0,68.286,0,61.4v-0.392
		c0-6.886,5.634-12.519,12.519-12.519h97.37c6.886,0,12.519,5.633,12.519,12.519V61.4C122.408,68.286,116.775,73.919,109.889,73.919
		z"/>
	<path id="XMLID_211_" style="fill:#66B406;" d="M48.491,109.889v-97.37C48.491,5.634,54.124,0,61.009,0h0.392
		c6.885,0,12.519,5.634,12.519,12.519v97.37c0,6.886-5.634,12.52-12.519,12.52h-0.392C54.124,122.409,48.491,116.775,48.491,109.889
		z"/>
</g>
<g>
</g>
<g>
</g>
<g>
</g>
<g>
</g>
<g>
</g>
<g>
</g>
<g>
</g>
<g>
</g>
<g>
</g>
<g>
</g>
<g>
</g>
<g>
</g>
<g>
</g>
<g>
</g>
<g>
</g>
</svg>
